<svg width="16" height="16" viewBox="0 0 40 40" fill="none" xmlns="http://www.w3.org/2000/svg">
<path fill-rule="evenodd" clip-rule="evenodd" d="M5.375 4.25C4.75368 4.25 4.25 4.75368 4.25 5.375V30.125H2V5.375C2 3.51104 3.51104 2 5.375 2H35.517C37.0204 2 37.7733 3.81768 36.7103 4.88074L18.1457 23.4453H23.375V21.125H25.625V24.0078C25.625 24.9398 24.8695 25.6953 23.9375 25.6953H15.8957L12.0285 29.5625H29.5625V15.5H31.8125V29.5625C31.8125 30.8051 30.8051 31.8125 29.5625 31.8125H9.77847L5.84098 35.75H34.625C35.2463 35.75 35.75 35.2463 35.75 34.625V9.875H38V34.625C38 36.489 36.489 38 34.625 38H4.48299C2.97959 38 2.22669 36.1823 3.28975 35.1193L21.784 16.625H16.625V18.875H14.375V16.0625C14.375 15.1305 15.1305 14.375 16.0625 14.375H24.034L27.9715 10.4375H10.4375V24.5H8.1875V10.4375C8.1875 9.19486 9.19486 8.1875 10.4375 8.1875H30.2215L34.159 4.25H5.375Z" fill="#EEE"/>
</svg>
